<svg width="271" height="362" viewBox="0 0 271 362" fill="none" xmlns="http://www.w3.org/2000/svg">
<path fill-rule="evenodd" clip-rule="evenodd" d="M111.346 65.0775C109.702 62.2882 107.011 60.2541 103.858 59.4178C100.705 58.5816 97.3459 59.011 94.5116 60.6125L18.1448 104.283C15.3246 105.909 13.268 108.571 12.4225 111.689C11.577 114.808 12.0111 118.13 13.6304 120.934C15.2736 123.724 17.9671 125.757 21.1219 126.588C24.2766 127.42 27.6358 126.982 30.4648 125.37L106.628 81.8718C108.063 81.0864 109.327 80.0259 110.343 78.7522C111.36 77.4785 112.11 76.0173 112.549 74.4537C112.988 72.8902 113.108 71.2557 112.902 69.6459C112.695 68.036 112.166 66.483 111.346 65.0775Z" fill="#354546"/>
<path fill-rule="evenodd" clip-rule="evenodd" d="M140.449 139.471L112.485 91L112.166 91.2034L36.2033 135.083H36L63.9633 183.555C50.4436 202.937 43.9285 226.351 45.4923 249.936C47.0562 273.521 56.6056 295.869 72.5657 313.293C88.5259 330.717 109.943 342.177 133.286 345.783C156.629 349.389 180.503 344.926 200.97 333.129C221.438 321.332 237.276 302.907 245.874 280.891C254.472 258.876 255.315 234.586 248.265 212.026C241.214 189.467 226.692 169.986 207.092 156.796C187.492 143.606 163.985 137.495 140.449 139.471Z" fill="#354546"/>
<path fill-rule="evenodd" clip-rule="evenodd" d="M140.449 139.471L112.485 91L112.166 91.2034L36.2033 135.083H36L63.9633 183.555C50.4436 202.937 43.9285 226.351 45.4923 249.936C47.0562 273.521 56.6056 295.869 72.5657 313.293C88.5259 330.717 109.943 342.177 133.286 345.783C156.629 349.389 180.503 344.926 200.97 333.129C221.438 321.332 237.276 302.907 245.874 280.891C254.472 258.876 255.315 234.586 248.265 212.026C241.214 189.467 226.692 169.986 207.092 156.796C187.492 143.606 163.985 137.495 140.449 139.471Z" fill="white"/>
<path fill-rule="evenodd" clip-rule="evenodd" d="M111.346 65.0775C109.702 62.2882 107.011 60.2541 103.858 59.4178C100.705 58.5816 97.3459 59.011 94.5116 60.6125L18.1448 104.283C15.3246 105.909 13.268 108.571 12.4225 111.689C11.577 114.808 12.0111 118.13 13.6304 120.934C15.2736 123.724 17.9671 125.757 21.1219 126.588C24.2766 127.42 27.6358 126.982 30.4648 125.37L106.628 81.8718C108.063 81.0864 109.327 80.0259 110.343 78.7522C111.36 77.4785 112.11 76.0173 112.549 74.4537C112.988 72.8902 113.108 71.2557 112.902 69.6459C112.695 68.036 112.166 66.483 111.346 65.0775Z" fill="white"/>
<path d="M146 362C215.036 362 271 353.493 271 343C271 332.507 215.036 324 146 324C76.9644 324 21 332.507 21 343C21 353.493 76.9644 362 146 362Z" fill="#354546"/>
<path fill-rule="evenodd" clip-rule="evenodd" d="M147.363 127.453L122.009 83.6297C124.643 78.9107 125.651 73.4573 124.878 68.1095C124.104 62.7618 121.592 57.8165 117.728 54.0356C113.864 50.2546 108.862 47.8477 103.494 47.1856C98.1257 46.5236 92.6884 47.6432 88.0198 50.3719L12.3635 94.0789C7.68422 96.7634 4.01698 100.909 1.92543 105.878C-0.166119 110.846 -0.566227 116.364 0.786611 121.582C2.13945 126.8 5.17036 131.43 9.41349 134.76C13.6566 138.091 18.8771 139.937 24.2726 140.015L49.5976 183.837C36.4355 205.844 30.957 231.592 34.0213 257.044C37.0856 282.496 48.5193 306.213 66.5295 324.475C84.5398 342.737 108.108 354.511 133.539 357.952C158.969 361.393 184.824 356.306 207.048 343.488C229.273 330.67 246.611 310.847 256.343 287.126C266.074 263.406 267.65 237.129 260.823 212.418C253.996 187.706 239.152 165.957 218.618 150.58C198.084 135.204 173.023 127.069 147.363 127.453ZM14.0731 121.664C12.4639 118.86 12.0238 115.536 12.8479 112.411C13.6721 109.286 15.6943 106.61 18.4774 104.962L94.3366 61.0815C95.7379 60.2666 97.2866 59.7362 98.8936 59.5207C100.501 59.3051 102.135 59.4088 103.701 59.8256C105.268 60.2425 106.737 60.9643 108.024 61.9498C109.311 62.9352 110.391 64.1648 111.201 65.568C112.819 68.3831 113.256 71.7241 112.414 74.8597C111.572 77.9953 109.521 80.67 106.709 82.2983L30.8212 126.005C28.0067 127.625 24.6647 128.065 21.5262 127.229C18.3876 126.394 15.7079 124.351 14.0731 121.548V121.664ZM201.026 333.049C180.613 344.82 156.794 349.291 133.496 345.726C110.198 342.161 88.8115 330.772 72.8619 313.437C56.9122 296.102 47.3517 273.856 45.7563 250.365C44.1609 226.874 50.626 203.542 64.0856 184.214L36.1818 135.933H36.3846L112.186 92.2264L112.505 92.0238L140.408 140.304C163.853 138.378 187.257 144.473 206.776 157.589C226.294 170.705 240.768 190.062 247.818 212.48C254.869 234.899 254.078 259.046 245.574 280.956C237.071 302.866 221.362 321.236 201.026 333.049Z" fill="#354546"/>
<path fill-rule="evenodd" clip-rule="evenodd" d="M264.385 230.003L260.307 226.64C247.215 215.309 230.465 209.128 213.17 209.245C193.824 209.419 175.576 216.87 157.849 224.147L151.95 226.727C147.034 225.451 142.214 224.069 137.491 222.581C124.044 218.464 110.77 213.884 97.3518 209.564C88.069 206.665 75.0268 202.403 65.3391 203.07C55.6515 203.737 45.4143 206.636 39.7463 215.623C36.3136 221.968 34.3934 229.023 34.1362 236.236V236.41C32.7552 264.929 41.9172 292.956 59.8674 315.123C77.8176 337.291 103.294 352.04 131.417 356.546C159.54 361.053 188.333 354.999 212.281 339.546C236.229 324.092 253.649 300.324 261.204 272.795C264.395 260.563 265.587 247.894 264.732 235.279L264.385 230.003Z" fill="#354546"/>
<path fill-rule="evenodd" clip-rule="evenodd" d="M56.1097 223.366C53.006 250.359 116.632 239.959 133 233.678C109.4 226.744 90.807 220.403 75.8154 217.055C68.671 215.455 57.1638 214.477 56.1097 223.366Z" fill="#FF5758"/>
<path fill-rule="evenodd" clip-rule="evenodd" d="M148.313 241.607C109.626 256.562 46.7256 262.068 45.7664 230.739C44.0123 245.066 45.277 259.6 49.4797 273.411C53.6823 287.222 60.7302 300.006 70.1726 310.946C79.6149 321.885 91.2436 330.739 104.315 336.94C117.386 343.142 131.611 346.554 146.081 346.959C160.55 347.364 174.945 344.753 188.345 339.293C201.744 333.833 213.853 325.644 223.896 315.25C233.939 304.856 241.696 292.486 246.669 278.932C251.642 265.378 253.723 250.938 252.778 236.536C217.666 207.844 182.902 228.218 148.313 241.607Z" fill="#FF7979"/>
<path fill-rule="evenodd" clip-rule="evenodd" d="M36.2047 135.266H36L64.1619 183.939C59.3773 190.79 55.4491 198.199 52.4643 206C54.0899 205.443 55.7507 204.995 57.4358 204.658C59.5757 204.198 61.7449 203.886 63.928 203.724C66.8058 194.022 71.2187 184.84 77 176.528L48.8381 128L36.2047 135.266Z" fill="#BDC3C7"/>
<path fill-rule="evenodd" clip-rule="evenodd" d="M212.923 318.865C167.515 343.87 98.0514 321.933 72.1079 277.19C67.2242 268.787 63.6858 259.677 61.6201 250.188C59.0342 249.275 56.5744 248.04 54.299 246.512C51.7039 244.827 49.5665 242.529 48.0766 239.823C46.5866 237.117 45.7901 234.086 45.7577 231C43.43 250.098 46.4904 269.464 54.5954 286.925C62.7004 304.387 75.5294 319.253 91.643 329.856C107.757 340.46 126.517 346.38 145.821 346.954C165.124 347.528 184.205 342.732 200.925 333.104C200.925 333.104 223.557 322.83 240 293.339C239.971 293.339 227.304 310.935 212.923 318.865Z" fill="#FF5758"/>
<path fill-rule="evenodd" clip-rule="evenodd" d="M107.509 73.4035L31.163 116.804C28.3247 118.41 24.9561 118.842 21.7945 118.007C18.633 117.172 15.9362 115.138 14.2945 112.349C13.8018 111.519 13.4193 110.63 13.1563 109.705C12.0468 112.048 11.7249 114.679 12.2375 117.216C12.7501 119.752 14.0704 122.061 16.0067 123.807C17.9429 125.554 20.3941 126.647 23.0043 126.928C25.6144 127.209 28.2475 126.663 30.521 125.369L106.838 81.9686C109.233 80.5997 111.092 78.4795 112.118 75.9471C113.145 73.4147 113.279 70.6165 112.5 68C111.453 70.2719 109.707 72.1622 107.509 73.4035Z" fill="#BDC3C7"/>
<path fill-rule="evenodd" clip-rule="evenodd" d="M11.9377 68.2992C10.7926 67.4644 9.44205 67.0124 8.05707 67.0002C6.6721 66.9881 5.3149 67.4165 4.15723 68.2312C2.99957 69.0458 2.09347 70.2101 1.55363 71.5767C1.01378 72.9433 0.864445 74.4507 1.12452 75.9083C1.38459 77.3659 2.04239 78.708 3.01465 79.7649C3.98692 80.8217 5.22995 81.5458 6.58645 81.8455C7.94294 82.1452 9.35191 82.0069 10.6351 81.4483C11.9182 80.8897 13.0178 79.9358 13.7948 78.7073C14.835 77.0627 15.2236 75.043 14.8755 73.0917C14.5273 71.1403 13.4707 69.4167 11.9377 68.2992Z" fill="#FAC090"/>
<path fill-rule="evenodd" clip-rule="evenodd" d="M55.933 1.20352C54.7866 0.427984 53.436 0.00923799 52.0516 0.00015109C50.6672 -0.00893581 49.3111 0.392045 48.1546 1.15246C46.9981 1.91288 46.093 2.99865 45.5536 4.27267C45.0142 5.54669 44.8647 6.95184 45.1239 8.31071C45.3831 9.66958 46.0395 10.9212 47.0101 11.9077C47.9807 12.8941 49.2221 13.571 50.5774 13.853C51.9328 14.135 53.3414 14.0094 54.6254 13.4921C55.9094 12.9748 57.0112 12.0889 57.7917 10.9464C58.8342 9.40688 59.2239 7.51743 58.8756 5.6915C58.5272 3.86558 57.4692 2.25187 55.933 1.20352Z" fill="#3E85B9"/>
<path fill-rule="evenodd" clip-rule="evenodd" d="M63.9339 37.5767C64.5769 35.1444 62.2285 34.082 60.8027 35.9552C59.7787 37.3678 58.3396 38.4259 56.6859 38.9821C55.0322 39.5383 53.2463 39.565 51.5767 39.0584C49.1444 38.4434 48.082 40.7638 49.9552 42.2176C51.3622 43.2398 52.4167 44.6742 52.9727 46.3221C53.5287 47.97 53.5587 49.75 53.0584 51.4157C52.4434 53.848 54.7638 54.9103 56.1897 53.0651C57.21 51.6476 58.6475 50.5839 60.3014 50.0226C61.9553 49.4612 63.7433 49.4302 65.4157 49.9339C67.848 50.5769 68.9103 48.2285 67.0651 46.8027C65.6476 45.7823 64.5839 44.3449 64.0226 42.691C63.4612 41.037 63.4302 39.2491 63.9339 37.5767Z" fill="#3E85B9"/>
<path fill-rule="evenodd" clip-rule="evenodd" d="M101.37 5.44104L99.205 4.89577L99.7901 2.77209C99.8696 2.49318 99.8917 2.20154 99.855 1.91418C99.8184 1.62682 99.7238 1.34949 99.5767 1.09837C99.4297 0.847259 99.2331 0.627387 98.9985 0.451587C98.7638 0.275787 98.4959 0.147579 98.2102 0.0744423C97.9316 0.000651701 97.641 -0.0185264 97.3549 0.0180063C97.0687 0.0545389 96.7928 0.146065 96.5428 0.287345C96.2927 0.428625 96.0736 0.616885 95.8978 0.841348C95.7221 1.06581 95.5932 1.32207 95.5185 1.59546L94.9334 3.71914L92.7683 3.17387C92.4898 3.10008 92.1991 3.0809 91.913 3.11743C91.6269 3.15396 91.3509 3.24549 91.1009 3.38677C90.8509 3.52805 90.6317 3.71631 90.456 3.94077C90.2802 4.16524 90.1513 4.4215 90.0767 4.69488C89.924 5.25043 90.0013 5.84265 90.2917 6.34256C90.5821 6.84246 91.0622 7.20954 91.6273 7.36383L93.8216 7.9091L93.2365 10.0328C93.1239 10.3184 93.074 10.6241 93.0899 10.9299C93.1058 11.2357 93.1871 11.5348 93.3286 11.8077C93.4701 12.0806 93.6687 12.3213 93.9113 12.514C94.1539 12.7067 94.4351 12.8471 94.7367 12.9261C95.0383 13.0051 95.3535 13.021 95.6617 12.9726C95.97 12.9243 96.2644 12.8128 96.5258 12.6454C96.7872 12.4781 97.0098 12.2586 97.179 12.0013C97.3483 11.744 97.4604 11.4546 97.508 11.152L98.0639 9.02834L100.258 9.57361C100.537 9.6474 100.827 9.66657 101.114 9.63004C101.4 9.59351 101.676 9.50198 101.926 9.3607C102.176 9.21942 102.395 9.03116 102.571 8.8067C102.746 8.58224 102.875 8.32598 102.95 8.05259C103.069 7.50218 102.973 6.92781 102.68 6.44384C102.388 5.95988 101.92 5.60184 101.37 5.44104Z" fill="#FAC090"/>
<path fill-rule="evenodd" clip-rule="evenodd" d="M22.5 36C21.2144 36 19.9577 36.3812 18.8888 37.0954C17.8199 37.8097 16.9868 38.8248 16.4948 40.0126C16.0028 41.2003 15.8741 42.5072 16.1249 43.7681C16.3757 45.029 16.9948 46.1872 17.9038 47.0962C18.8129 48.0052 19.971 48.6243 21.2319 48.8751C22.4928 49.1259 23.7997 48.9972 24.9874 48.5052C26.1752 48.0132 27.1903 47.1801 27.9046 46.1112C28.6188 45.0423 29 43.7856 29 42.5C29 40.7761 28.3152 39.1228 27.0962 37.9038C25.8772 36.6848 24.2239 36 22.5 36ZM22.5 45.9747C21.8128 45.9747 21.141 45.7709 20.5696 45.3891C19.9982 45.0073 19.5528 44.4646 19.2898 43.8297C19.0269 43.1948 18.958 42.4961 19.0921 41.8221C19.2262 41.1481 19.5571 40.529 20.043 40.043C20.529 39.5571 21.1481 39.2262 21.8221 39.0921C22.4962 38.958 23.1948 39.0268 23.8297 39.2898C24.4646 39.5528 25.0073 39.9982 25.3891 40.5696C25.7709 41.141 25.9747 41.8128 25.9747 42.5C25.9747 43.4215 25.6086 44.3053 24.957 44.957C24.3053 45.6086 23.4215 45.9747 22.5 45.9747Z" fill="#FF6E55"/>
<path fill-rule="evenodd" clip-rule="evenodd" d="M103.432 147.841C104.118 145.164 101.543 143.983 99.969 146.056C98.8438 147.616 97.2636 148.784 95.448 149.398C93.6324 150.012 91.6718 150.042 89.8388 149.483C87.1489 148.792 86.0042 151.383 88.036 152.966C89.5927 154.093 90.7588 155.682 91.3697 157.511C91.9807 159.339 92.0057 161.315 91.4413 163.159C90.7545 165.836 93.33 167.017 94.9039 164.944C96.0364 163.361 97.636 162.178 99.4753 161.563C101.315 160.948 103.3 160.932 105.149 161.517C107.838 162.208 109.012 159.617 106.951 158.034C105.378 156.92 104.191 155.337 103.56 153.508C102.928 151.679 102.883 149.697 103.432 147.841Z" fill="#FF6E55"/>
<path fill-rule="evenodd" clip-rule="evenodd" d="M154.535 177.02H151.98V174.495C151.98 173.838 151.721 173.208 151.26 172.741C150.798 172.274 150.171 172.008 149.515 172C148.856 172.008 148.225 172.273 147.759 172.739C147.293 173.206 147.028 173.836 147.02 174.495V177.02H144.495C143.838 177.02 143.208 177.279 142.741 177.74C142.274 178.202 142.008 178.829 142 179.485C142.008 180.144 142.273 180.775 142.739 181.241C143.206 181.707 143.836 181.972 144.495 181.98H147.02V184.505C147.028 185.164 147.293 185.794 147.759 186.261C148.225 186.727 148.856 186.992 149.515 187C150.171 186.992 150.798 186.726 151.26 186.259C151.721 185.792 151.98 185.162 151.98 184.505V181.98H154.535C155.191 181.972 155.818 181.706 156.28 181.239C156.741 180.772 157 180.142 157 179.485C157 178.831 156.74 178.204 156.278 177.742C155.816 177.28 155.188 177.02 154.535 177.02Z" fill="#3E85B9"/>
<path fill-rule="evenodd" clip-rule="evenodd" d="M97.5 113C96.4122 113 95.3488 113.352 94.4444 114.011C93.5399 114.67 92.8349 115.608 92.4187 116.704C92.0024 117.8 91.8935 119.007 92.1057 120.171C92.3179 121.334 92.8417 122.404 93.6109 123.243C94.3801 124.082 95.3601 124.653 96.427 124.885C97.4939 125.116 98.5998 124.997 99.6048 124.543C100.61 124.089 101.469 123.32 102.073 122.333C102.677 121.347 103 120.187 103 119C103 117.409 102.421 115.883 101.389 114.757C100.358 113.632 98.9587 113 97.5 113ZM97.5 122.27C96.9138 122.27 96.3407 122.081 95.8529 121.726C95.3651 121.371 94.9844 120.867 94.7588 120.277C94.5332 119.686 94.4728 119.037 94.5852 118.409C94.6976 117.781 94.9778 117.204 95.3904 116.75C95.803 116.295 96.3296 115.984 96.9039 115.856C97.4782 115.728 98.0745 115.787 98.6177 116.028C99.1608 116.269 99.6265 116.679 99.9562 117.208C100.286 117.737 100.465 118.36 100.47 119C100.456 119.849 100.136 120.658 99.5809 121.252C99.0255 121.847 98.2783 122.18 97.5 122.18V122.27Z" fill="#F5AB35"/>
<path fill-rule="evenodd" clip-rule="evenodd" d="M122 177C120.022 177 118.089 177.587 116.444 178.685C114.8 179.784 113.518 181.346 112.761 183.173C112.004 185 111.806 187.011 112.192 188.951C112.578 190.891 113.53 192.673 114.929 194.071C116.327 195.47 118.109 196.422 120.049 196.808C121.989 197.194 124 196.996 125.827 196.239C127.654 195.482 129.216 194.2 130.315 192.556C131.413 190.911 132 188.978 132 187C132.004 185.686 131.748 184.384 131.246 183.169C130.745 181.954 130.009 180.85 129.079 179.921C128.15 178.991 127.046 178.255 125.831 177.754C124.616 177.252 123.314 176.996 122 177ZM122 192.33C120.939 192.329 119.902 192.014 119.02 191.424C118.138 190.834 117.452 189.996 117.047 189.015C116.642 188.034 116.538 186.956 116.747 185.915C116.956 184.875 117.469 183.921 118.221 183.172C118.974 182.424 119.931 181.916 120.972 181.713C122.014 181.509 123.092 181.619 124.07 182.029C125.049 182.439 125.884 183.131 126.469 184.015C127.054 184.9 127.364 185.939 127.358 187C127.351 188.416 126.783 189.772 125.779 190.77C124.775 191.769 123.416 192.33 122 192.33Z" fill="#FAC090"/>
</svg>
